<svg aria-hidden="true" style="position: absolute; width: 0; height: 0; overflow: hidden;" version="1.1" xmlns="http://www.w3.org/2000/svg" xmlns:xlink="http://www.w3.org/1999/xlink">
<defs>

<symbol id='header-icon'>
<path stroke="#818181" stroke-linecap="round" stroke-linejoin="round" stroke-width="2" d="M19.82 2H4.18A2.18 2.18 0 0 0 2 4.18v15.64A2.18 2.18 0 0 0 4.18 22h15.64A2.18 2.18 0 0 0 22 19.82V4.18A2.18 2.18 0 0 0 19.82 2ZM7 2v20M17 2v20M2 12h20M2 7h5M2 17h5M17 17h5M17 7h5"/>
</symbol>


<symbol id='search-icon'>
<path stroke="#fff" stroke-linecap="round" stroke-linejoin="round" d="M5.5 9.5a4 4 0 1 0 0-8 4 4 0 0 0 0 8ZM10.5 10.5 8.325 8.325"/>
</symbol>

<symbol id='heart-icon'>
<path fill="#FF6B08" d="m7 12.88-.98-.98C2.38 8.68 0 6.51 0 3.85 0 1.68 1.68 0 3.85 0 5.04 0 6.23.56 7 1.47 7.77.56 8.96 0 10.15 0 12.32 0 14 1.68 14 3.85c0 2.66-2.38 4.83-6.02 8.05l-.98.98Z"/>
</symbol>

</defs>
</svg>
