<svg aria-hidden="true" style="position: absolute; width: 0; height: 0; overflow: hidden;" version="1.1" xmlns="http://www.w3.org/2000/svg" xmlns:xlink="http://www.w3.org/1999/xlink">
<defs>

<symbol id='header-icon'>
<path stroke="#818181" stroke-linecap="round" stroke-linejoin="round" stroke-width="2" d="M19.82 2H4.18A2.18 2.18 0 0 0 2 4.18v15.64A2.18 2.18 0 0 0 4.18 22h15.64A2.18 2.18 0 0 0 22 19.82V4.18A2.18 2.18 0 0 0 19.82 2ZM7 2v20M17 2v20M2 12h20M2 7h5M2 17h5M17 17h5M17 7h5"/>
</symbol>


<symbol id='search-icon'>
<path stroke="#fff" stroke-linecap="round" stroke-linejoin="round" d="M5.5 9.5a4 4 0 1 0 0-8 4 4 0 0 0 0 8ZM10.5 10.5 8.325 8.325"/>
</symbol>

<symbol id='heart-icon'>
<path fill="#FF6B08" d="m7 12.88-.98-.98C2.38 8.68 0 6.51 0 3.85 0 1.68 1.68 0 3.85 0 5.04 0 6.23.56 7 1.47 7.77.56 8.96 0 10.15 0 12.32 0 14 1.68 14 3.85c0 2.66-2.38 4.83-6.02 8.05l-.98.98Z"/>
</symbol>

<symbol id="icon-github" viewBox="0 0 32 32">
      <path d="M16 2C8.269 2 2 8.431 2 16.356c0 6.344 4.013 11.719 9.575 13.619.07.016.15.025.233.025h.005c.519 0 .719-.381.719-.712 0-.344-.012-1.244-.019-2.444-.423.104-.91.165-1.41.169H11.1c-2.694 0-3.306-2.094-3.306-2.094-.638-1.656-1.556-2.1-1.556-2.1-1.219-.856-.006-.881.088-.881h.006c1.406.125 2.144 1.488 2.144 1.488.7 1.225 1.637 1.569 2.475 1.569a3.93 3.93 0 0 0 1.624-.385l-.024.01c.125-.925.488-1.556.887-1.919-3.106-.363-6.375-1.594-6.375-7.094 0-1.569.544-2.85 1.438-3.85-.144-.363-.625-1.825.137-3.8a1.15 1.15 0 0 1 .314-.031H8.95c.506 0 1.65.194 3.537 1.506 1.051-.306 2.258-.481 3.506-.481s2.455.176 3.598.504l-.092-.023c1.887-1.313 3.031-1.506 3.538-1.506l.041-.001c.096 0 .19.012.279.034l-.008-.002c.762 1.975.281 3.438.137 3.8.894 1.006 1.438 2.287 1.438 3.85 0 5.513-3.275 6.725-6.394 7.081.5.444.95 1.319.95 2.656 0 1.919-.019 3.469-.019 3.938 0 .337.194.719.712.719h.005c.087 0 .171-.009.253-.026l-.008.001c5.569-1.9 9.575-7.281 9.575-13.619 0-7.925-6.269-14.356-14-14.356z"/>
    </symbol>

     <symbol id="icon-close" viewBox="0 0 32 32">
      <path stroke-width="2.133" d="m8.533 8.533 14.933 14.933m-14.933.001L23.466 8.534"/>
    </symbol>

</defs>
</svg>
